HIERARCHY
ROOT joint_Root
{
	OFFSET 0.0 0.0 0.0
	CHANNELS 6 Xposition Yposition Zposition Zrotation Xrotation Yrotation 
	JOINT Hips
	{
		OFFSET 4.5925 91.4895 -427.239
		CHANNELS 6 Xposition Yposition Zposition Zrotation Xrotation Yrotation 
		JOINT Spine
		{
			OFFSET 15.7357 0.0 0.0
			CHANNELS 6 Xposition Yposition Zposition Zrotation Xrotation Yrotation 
			JOINT Chest
			{
				OFFSET 8.98455 -0.406207 0.0
				CHANNELS 6 Xposition Yposition Zposition Zrotation Xrotation Yrotation 
				JOINT Neck
				{
					OFFSET 16.3773 0.0 0.0
					CHANNELS 6 Xposition Yposition Zposition Zrotation Xrotation Yrotation 
					JOINT Head
					{
						OFFSET 6.45672 0.0 0.0
						CHANNELS 6 Xposition Yposition Zposition Zrotation Xrotation Yrotation 
						End Site
						{
							OFFSET 0.0 0.0 0.0
						}
					}
				}
				JOINT Shoulder_L
				{
					OFFSET 12.9942 -0.242716 4.98039
					CHANNELS 6 Xposition Yposition Zposition Zrotation Xrotation Yrotation 
					JOINT UpperArm_L
					{
						OFFSET 5.34809 0.0 0.0
						CHANNELS 6 Xposition Yposition Zposition Zrotation Xrotation Yrotation 
						JOINT LowerArm_L
						{
							OFFSET 24.3286 1.87007e-05 0.0
							CHANNELS 6 Xposition Yposition Zposition Zrotation Xrotation Yrotation 
							JOINT Hand_L
							{
								OFFSET 22.2916 0.0 0.0
								CHANNELS 6 Xposition Yposition Zposition Zrotation Xrotation Yrotation 
								End Site
								{
									OFFSET 0.0 0.0 0.0
								}
							}
						}
					}
				}
				JOINT Shoulder_R
				{
					OFFSET 12.9945 -0.242716 -4.98039
					CHANNELS 6 Xposition Yposition Zposition Zrotation Xrotation Yrotation 
					JOINT UpperArm_R
					{
						OFFSET -5.34813 0.0 0.0
						CHANNELS 6 Xposition Yposition Zposition Zrotation Xrotation Yrotation 
						JOINT LowerArm_R
						{
							OFFSET -24.3289 0.000322201 0.0
							CHANNELS 6 Xposition Yposition Zposition Zrotation Xrotation Yrotation 
							JOINT Hand_R
							{
								OFFSET -22.2915 -0.000108084 0.0
								CHANNELS 6 Xposition Yposition Zposition Zrotation Xrotation Yrotation 
								End Site
								{
									OFFSET 0.0 0.0 0.0
								}
							}
						}
					}
				}
			}
		}
		JOINT UpperLeg_L
		{
			OFFSET -2.19248 -6.46944 0.0
			CHANNELS 6 Xposition Yposition Zposition Zrotation Xrotation Yrotation 
			JOINT LowerLeg_L
			{
				OFFSET 39.0811 0.0 -1.23785e-05
				CHANNELS 6 Xposition Yposition Zposition Zrotation Xrotation Yrotation 
				JOINT Foot_L
				{
					OFFSET 40.9854 0.0 -1.26872e-05
					CHANNELS 6 Xposition Yposition Zposition Zrotation Xrotation Yrotation 
					JOINT Toes_L
					{
						OFFSET 11.7543 0.0 0.0
						CHANNELS 6 Xposition Yposition Zposition Zrotation Xrotation Yrotation 
						End Site
						{
							OFFSET 0.0 0.0 0.0
						}
					}
				}
			}
		}
		JOINT UpperLeg_R
		{
			OFFSET -2.19251 6.46944 0.0
			CHANNELS 6 Xposition Yposition Zposition Zrotation Xrotation Yrotation 
			JOINT LowerLeg_R
			{
				OFFSET -39.0811 -0.00228153 -0.0401928
				CHANNELS 6 Xposition Yposition Zposition Zrotation Xrotation Yrotation 
				JOINT Foot_R
				{
					OFFSET -40.9854 0.0 0.0
					CHANNELS 6 Xposition Yposition Zposition Zrotation Xrotation Yrotation 
					JOINT Toes_R
					{
						OFFSET -11.7543 0.0 0.0
						CHANNELS 6 Xposition Yposition Zposition Zrotation Xrotation Yrotation 
						End Site
						{
							OFFSET 0.0 0.0 0.0
						}
					}
				}
			}
		}
	}
}
MOTION
Frames:	4
Frame Time:	0.0333333
0.000000 0.000000 0.000000 0.000000 0.000000 -0.000000 -0.495468 92.488300 0.622745 87.922800 5.354610 1.658940 15.735700 0.000005 -0.000001 87.187000 86.823700 -91.309400 8.984550 -0.406207 -0.000000 -1.407080 0.017878 -8.241740 16.377300 -0.000001 -0.000001 3.082540 -5.293870 4.100430 6.456720 -0.000001 -0.000000 -2.910600 -4.586120 2.849230 12.994200 -0.242716 4.980390 -92.124400 5.091150 -67.314500 5.348090 -0.000007 -0.000001 -60.486300 11.382100 -2.867660 24.328600 0.000019 0.000005 10.764600 20.396900 -28.612900 22.291600 -0.000001 0.000005 14.041100 5.204170 2.615600 12.994500 -0.242716 -4.980390 94.526100 -11.778500 -68.804900 -5.348130 -0.000001 -0.000004 -37.836200 -70.581000 -71.872600 -24.328900 0.000322 -0.000009 -7.020580 -4.939440 -55.034600 -22.291500 -0.000108 -0.000004 21.154300 5.544280 -8.438960 -2.192480 -6.469440 -0.000000 -174.215000 -12.305300 -4.169460 39.081100 -0.000007 -0.000012 -0.064011 0.164746 21.233400 40.985400 -0.000006 -0.000013 1.663440 15.293000 -66.024300 11.754300 -0.000000 0.000003 -0.000176 -0.001666 -16.640600 -2.192510 6.469440 -0.000001 177.530000 28.310600 -179.566000 -39.081100 -0.002282 -0.040193 0.003130 0.000606 17.877100 -40.985400 0.000008 0.000006 6.337060 18.847500 -66.525600 -11.754300 -0.000006 -0.000006 -0.155119 -0.205383 -17.631300
0.000000 0.000000 0.000000 0.000000 0.000000 -0.000000 -0.256543 92.489200 0.408932 88.072700 4.899940 1.793170 15.735700 0.000005 -0.000001 87.057700 86.695700 -90.873400 8.984550 -0.406207 -0.000000 -1.156090 -0.042420 -7.628920 16.377300 -0.000001 -0.000001 2.591270 -4.726200 3.523310 6.456720 -0.000001 -0.000000 -2.533910 -4.603920 3.235490 12.994200 -0.242716 4.980390 -92.159200 5.189270 -67.370700 5.348090 -0.000007 -0.000001 -61.576200 12.794300 -4.041280 24.328600 0.000019 0.000005 10.480900 21.219300 -27.072500 22.291600 -0.000001 0.000005 13.408300 5.192240 2.913220 12.994500 -0.242716 -4.980390 93.588000 -9.873430 -69.914700 -5.348130 -0.000001 -0.000004 -31.735700 -67.609500 -61.874600 -24.328900 0.000322 -0.000009 -7.527220 -3.195400 -67.130500 -22.291500 -0.000108 -0.000004 21.889900 5.539650 -8.226880 -2.192480 -6.469440 -0.000000 -174.533000 -12.658800 -4.101760 39.081100 -0.000007 -0.000012 -0.060924 0.156496 21.271000 40.985400 -0.000006 -0.000013 1.835930 15.161300 -65.975700 11.754300 -0.000000 0.000003 -0.000159 -0.001525 -16.635500 -2.192510 6.469440 -0.000001 177.193000 27.959000 -179.607000 -39.081100 -0.002282 -0.040193 0.003564 -0.000739 17.944300 -40.985400 0.000008 0.000006 6.247930 19.026300 -66.579600 -11.754300 -0.000006 -0.000006 -0.125809 -0.167675 -17.439800
0.000000 0.000000 0.000000 0.000000 0.000000 -0.000000 -0.037528 92.477600 0.233782 88.198700 4.359380 2.057500 15.735700 0.000005 -0.000001 86.373300 86.498500 -89.860100 8.984550 -0.406207 -0.000000 -0.773111 -0.183338 -6.971500 16.377300 -0.000001 -0.000001 1.896820 -4.063980 2.937980 6.456720 -0.000001 -0.000000 -1.893350 -4.365700 3.483310 12.994200 -0.242716 4.980390 -92.198800 5.260030 -67.275800 5.348090 -0.000007 -0.000001 -62.707100 14.171900 -4.999500 24.328600 0.000019 0.000005 10.110400 21.580200 -25.864500 22.291600 -0.000001 0.000005 13.391900 5.180380 3.206560 12.994500 -0.242716 -4.980390 92.629000 -7.852870 -71.426700 -5.348130 -0.000001 -0.000004 -25.220200 -63.612500 -50.871800 -24.328900 0.000322 -0.000009 -7.358810 -1.368890 -79.528400 -22.291500 -0.000108 -0.000004 21.958900 5.531970 -7.881630 -2.192480 -6.469440 -0.000000 -174.756000 -13.176600 -3.876070 39.081100 -0.000007 -0.000012 -0.057117 0.145995 21.366800 40.985400 -0.000006 -0.000013 2.016560 15.099900 -66.004700 11.754300 -0.000000 0.000003 -0.000158 -0.001519 -16.635200 -2.192510 6.469440 -0.000001 176.804000 27.698700 -179.468000 -39.081100 -0.002282 -0.040193 0.003763 -0.001349 18.001400 -40.985400 0.000008 0.000006 6.218480 19.335800 -66.721500 -11.754300 -0.000006 -0.000006 -0.001259 -0.019023 -17.346700
0.000000 0.000000 0.000000 0.000000 0.000000 -0.000000 0.155859 92.449400 0.044939 88.308300 3.667960 2.422980 15.735700 0.000005 -0.000001 86.049500 86.243600 -89.202400 8.984550 -0.406207 -0.000000 -0.271369 -0.296544 -6.302710 16.377300 -0.000001 -0.000001 1.232020 -3.443640 2.483150 6.456720 -0.000001 -0.000000 -1.086620 -4.091570 3.579980 12.994200 -0.242716 4.980390 -92.224500 5.292990 -67.165200 5.348090 -0.000007 -0.000001 -63.830900 15.362900 -5.812740 24.328600 0.000019 0.000005 9.757900 21.563900 -25.074900 22.291600 -0.000001 0.000005 13.201000 5.177110 3.286670 12.994500 -0.242716 -4.980390 91.707300 -5.609030 -73.044600 -5.348130 -0.000001 -0.000004 -20.049400 -57.928000 -40.973400 -24.328900 0.000322 -0.000009 -5.221370 0.095696 -91.082600 -22.291500 -0.000108 -0.000004 21.786900 5.520970 -7.403420 -2.192480 -6.469440 -0.000000 -174.915000 -13.761700 -3.598420 39.081100 -0.000007 -0.000012 -0.054970 0.138943 21.585200 40.985400 -0.000006 -0.000013 2.177250 14.953300 -66.092400 11.754300 -0.000000 0.000003 -0.000136 -0.001338 -16.628500 -2.192510 6.469440 -0.000001 176.404000 27.318900 -179.258000 -39.081100 -0.002282 -0.040193 0.003900 -0.001760 18.093800 -40.985400 0.000008 0.000006 6.198640 19.700200 -66.944400 -11.754300 -0.000006 -0.000006 -0.001190 -0.018075 -17.308200
